<?xml version="1.0" encoding="utf-8"?>
<!-- Generator: Adobe Illustrator 16.0.0, SVG Export Plug-In . SVG Version: 6.00 Build 0)  -->
<!DOCTYPE svg PUBLIC "-//W3C//DTD SVG 1.1//EN" "http://www.w3.org/Graphics/SVG/1.1/DTD/svg11.dtd">
<svg version="1.1" id="Layer_1" xmlns="http://www.w3.org/2000/svg" xmlns:xlink="http://www.w3.org/1999/xlink" x="0px" y="0px"
	 width="474px" height="445px" viewBox="4 12.406 474 445" enable-background="new 4 12.406 474 445" xml:space="preserve">
<filter  id="AI_GaussianBlur_7">
	<feGaussianBlur  stdDeviation="7"></feGaussianBlur>
</filter>
<g opacity="0.88">
	<g id="shadow" filter="url(#AI_GaussianBlur_7)">
		<path opacity="0.7" d="M211.261,146.987l0.004-0.778c0.033-13.478,3.104-25.916,9.128-36.97
			c12.915-23.701,39.205-39.016,66.977-39.016c29.142,0,47.096,13.58,57.024,24.972c14.697,16.862,21.945,40.99,18.916,62.968
			c-0.671,4.858-1.829,9.527-3.435,13.855l-3.047,7.49l-88.416,134.998h144.946l-15.115-32.693l-0.213-0.453h-66.935l49.718-74.028
			c0.435-0.85,0.892-1.733,1.366-2.651c1.638-3.169,3.493-6.761,5.343-10.667c4.269-9.013,10.04-22.728,10.865-37.699
			c0.022-0.357,0.044-0.714,0.06-1.075c0.092-2.273,0.126-4.601,0.103-6.918c-0.429-41.858-19.34-68.299-35.13-83.109
			c-20.409-19.142-48.008-30.12-75.722-30.12c-27.149,0-52.151,8.89-72.301,25.708c-18.794,15.688-32.116,37.519-37.51,61.472
			c-1.773,7.871-2.681,15.925-2.699,23.938l-0.002,0.782h35.294L211.261,146.987z"/>
		<path opacity="0.7" d="M423.001,335.465H229.542l100.653-151.604c0.975-1.245,1.928-2.534,2.832-3.833
			c5.407-7.784,11.854-20.033,11.854-34.184c0-30.104-25.543-54.596-56.939-54.596c-21.73,0-41.873,12.135-51.315,30.917
			l-0.211,0.448c-0.324,0.652-0.636,1.305-0.928,1.97c-2.974,6.733-4.481,13.888-4.481,21.264l0.012,1.365h34.988l0.001-0.754
			c0.231-6.702,3.431-12.814,8.779-16.769c3.65-2.699,7.974-4.126,12.503-4.126c11.748,0,21.305,9.719,21.305,21.664
			c0,5.558-5.648,14.656-5.692,14.728l-25.085,37.498l0.069,0.019L165.975,366.569h270.001l1.823,0.904L423.001,335.465z"/>
		<path opacity="0.7" d="M114.413,40.355H70.045L51.567,77.013h62.066v258.163H92.379V97.683H41.148l-16.117,31.977h34.785v236.911
			h86.383l-0.003-290.338C146.196,58.594,146.196,40.355,114.413,40.355z"/>
	</g>
	<g>
		<g>
			<path fill="#FFFFFF" d="M207.184,144.026h0.004c0.034-14.2,3.442-26.734,9.223-37.341c13.688-25.121,40.684-39.423,67.662-39.423
				c55.227,0,82.171,49.232,76.713,88.826c-0.671,4.863-1.828,9.579-3.484,14.042l-3.075,7.56l-12.448,19.016l-15.615,23.844
				l-59.605,90.994h0.002H408.84h0.002l-14.604-31.587h-0.004h-67.899l37.793-56.269l12.694-18.895
				c1.938-3.787,4.321-8.275,6.698-13.297c5.027-10.614,10.031-23.614,10.792-37.413c0.021-0.353,0.043-0.706,0.059-1.059
				c0.094-2.322,0.125-4.616,0.102-6.879c-0.718-70.184-55.614-112.457-110.071-112.457c-56.734,0-98.385,39.216-109.051,86.572
				c-1.746,7.75-2.662,15.719-2.68,23.769h34.513C207.184,144.028,207.184,144.027,207.184,144.026z"/>
			<path opacity="0.3" d="M410.062,312.323H265.115l88.416-134.998l3.047-7.49c1.605-4.328,2.764-8.997,3.435-13.855
				c3.029-21.978-4.219-46.105-18.916-62.968c-9.929-11.392-27.883-24.972-57.024-24.972c-27.771,0-54.062,15.315-66.977,39.016
				c-6.025,11.054-9.096,23.493-9.128,36.97l-0.004,0.778l-0.78,0.004h-35.294l0.002-0.782c0.018-8.013,0.926-16.067,2.699-23.938
				c5.395-23.953,18.716-45.784,37.51-61.472c20.15-16.819,45.152-25.708,72.301-25.708c27.714,0,55.313,10.979,75.722,30.12
				c15.79,14.81,34.701,41.25,35.13,83.109c0.023,2.317-0.011,4.645-0.103,6.918c-0.016,0.361-0.037,0.718-0.06,1.075
				c-0.825,14.972-6.597,28.686-10.865,37.699c-1.85,3.907-3.705,7.499-5.343,10.667c-0.475,0.918-0.932,1.802-1.366,2.651
				l-49.718,74.027h66.935l0.213,0.453L410.062,312.323z M268,310.763h139.622l-13.883-30.026h-68.868l51.304-76.378
				c0.389-0.771,0.847-1.657,1.322-2.577c1.632-3.157,3.48-6.736,5.318-10.619c4.213-8.895,9.907-22.419,10.718-37.122
				c0.022-0.353,0.043-0.702,0.059-1.05c0.091-2.244,0.125-4.545,0.101-6.836c-0.715-69.91-56.13-111.686-109.291-111.686
				c-52.36,0-96.891,35.35-108.29,85.963c-1.69,7.504-2.583,15.176-2.656,22.818l32.957,0c0.147-13.442,3.279-25.866,9.313-36.938
				c13.185-24.196,40.012-39.83,68.347-39.83c29.729,0,48.059,13.871,58.2,25.506c14.985,17.192,22.375,41.794,19.285,64.206
				c-0.686,4.971-1.872,9.75-3.525,14.208l-3.154,7.716L268,310.763z"/>
		</g>
		<g>
			<path fill="#FFFFFF" d="M419.204,334.065H224.389l0.591-0.286l76.289-114.902l25.015-37.677c0.949-1.212,1.888-2.479,2.806-3.797
				c6.411-9.229,11.714-20.962,11.714-33.739c0-29.723-25.146-53.816-56.159-53.816c-22.291,0-41.549,12.447-50.618,30.486
				c-0.073,0.146-0.137,0.298-0.21,0.445c-0.319,0.641-0.625,1.284-0.913,1.938c-2.843,6.438-4.414,13.518-4.414,20.949
				c0,0.196,0.012,0.39,0.012,0.585h33.428c0-0.001,0-0.001,0-0.001h0.002c0.246-7.141,3.773-13.435,9.095-17.369
				c3.64-2.691,8.121-4.279,12.967-4.279c12.2,0,22.085,10.048,22.085,22.444c0,5.851-5.824,15.161-5.824,15.161l-24.478,36.589
				c0.019,0.005,0.056,0.008,0.077,0.009L164.138,363.608h268.723l0.004,0.002L419.204,334.065z"/>
			<path opacity="0.3" d="M434.502,365.291l-1.823-0.903H162.677l111.911-167.1l-0.069-0.019l25.085-37.498
				c0.044-0.071,5.692-9.169,5.692-14.728c0-11.945-9.557-21.664-21.305-21.664c-4.529,0-8.853,1.427-12.503,4.126
				c-5.349,3.955-8.548,10.067-8.779,16.769l-0.001,0.754H227.72l-0.012-1.365c0-7.376,1.507-14.531,4.48-21.264
				c0.292-0.665,0.604-1.318,0.928-1.97l0.211-0.448c9.442-18.781,29.585-30.917,51.315-30.917
				c31.396,0,56.939,24.492,56.939,54.596c0,14.151-6.446,26.4-11.854,34.184c-0.904,1.299-1.857,2.589-2.832,3.833L226.244,333.284
				h193.459L434.502,365.291z M165.599,362.827h266.045l-12.939-27.982H223.333l1.115-1.676l101.186-152.401
				c0.992-1.271,1.928-2.537,2.815-3.812c5.279-7.6,11.573-19.546,11.573-33.293c0-29.244-24.843-53.037-55.379-53.037
				c-21.146,0-40.742,11.798-49.921,30.057l-0.208,0.442c-0.314,0.63-0.615,1.262-0.898,1.905
				c-2.859,6.476-4.321,13.351-4.348,20.44h31.919c0.453-6.885,3.841-13.127,9.373-17.217c3.921-2.9,8.565-4.432,13.431-4.432
				c12.607,0,22.865,10.418,22.865,23.224c0,6.006-5.7,15.187-5.943,15.575l-23.732,35.475l0.177,0.008l-0.857,1.135
				L165.599,362.827z"/>
		</g>
		<g>
			<path fill="#FFFFFF" d="M111.115,38.953H67.228L49.536,74.052h61.579v259.724H88.302V126.698v-10.529V96.281H38.331L23,126.698
				h34.298v207.078v0.002v14.915v14.915h53.818h25.154h5.851l-0.003-289.558C142.118,56.502,142.118,38.953,111.115,38.953z"/>
			<path opacity="0.3" d="M142.901,364.389H56.518V127.478H21.733L37.85,95.502h51.231v237.494h21.254V74.832H48.27l18.478-36.658
				h44.368c31.783,0,31.783,18.239,31.783,35.877L142.901,364.389z M58.078,362.828h83.264l-0.003-288.777
				c0-17.648,0-34.318-30.223-34.318H67.708L50.803,73.272h61.092v261.284H87.522V97.061H38.811l-14.544,28.857h33.811V362.828z"/>
		</g>
	</g>
</g>
<g>
	<defs>
		<polygon id="SVGID_1_" points="478,457.406 4,457.406 31.333,398.406 454.334,398.406 		"/>
	</defs>
	<clipPath id="SVGID_2_">
		<use xlink:href="#SVGID_1_"  overflow="visible"/>
	</clipPath>
	<rect x="136.333" y="388.406" clip-path="url(#SVGID_2_)" fill="#FFD40D" width="90" height="86.667"/>
	<polygon clip-path="url(#SVGID_2_)" fill="#FAA629" points="185,388.406 82.561,388.406 82.561,475.073 153.667,475.073 	"/>
	<polygon clip-path="url(#SVGID_2_)" fill="#F66F09" points="136.333,388.406 37.015,388.406 37.015,475.073 102.333,475.073 	"/>
	<polygon clip-path="url(#SVGID_2_)" fill="#D4021C" points="88.333,388.406 0,388.406 0,475.073 53.667,475.073 	"/>
	<polygon clip-path="url(#SVGID_2_)" fill="#47C473" points="277.667,388.406 226.333,388.406 211,475.073 277.667,475.073 	"/>
	<polygon clip-path="url(#SVGID_2_)" fill="#1CA9C9" points="340.334,475.073 267.667,475.073 271,388.406 324.334,388.406 	"/>
	<polygon clip-path="url(#SVGID_2_)" fill="#256CAA" points="408.842,475.073 324.334,475.073 305,388.406 373.667,388.406 	"/>
	<polygon clip-path="url(#SVGID_2_)" fill="#414992" points="470.667,475.073 379,475.073 355,388.406 470.667,388.406 	"/>
	<polygon clip-path="url(#SVGID_2_)" fill="#52347D" points="489,475.073 432.865,475.073 403.667,388.406 489,388.406 	"/>
</g>
</svg>
