<?xml version="1.0" encoding="utf-8"?>
<!-- Generator: Adobe Illustrator 16.0.0, SVG Export Plug-In . SVG Version: 6.00 Build 0)  -->
<!DOCTYPE svg PUBLIC "-//W3C//DTD SVG 1.1//EN" "http://www.w3.org/Graphics/SVG/1.1/DTD/svg11.dtd">
<svg version="1.1" id="Layer_1" xmlns="http://www.w3.org/2000/svg" xmlns:xlink="http://www.w3.org/1999/xlink" x="0px" y="0px"
	 width="407.214px" height="338.148px" viewBox="0 0 407.214 338.148" enable-background="new 0 0 407.214 338.148"
	 xml:space="preserve">
<filter  id="AI_GaussianBlur_7">
	<feGaussianBlur  stdDeviation="7"></feGaussianBlur>
</filter>
<g>
	<g>
		<defs>
			<path id="SVGID_1_" d="M367.984,251.65h-0.004h-68.959l38.383-57.146l12.893-19.19c1.969-3.846,4.389-8.404,6.803-13.505
				c5.104-10.779,10.186-23.982,10.961-37.996c0.02-0.358,0.043-0.717,0.057-1.075c0.096-2.358,0.127-4.688,0.105-6.986
				C367.494,44.472,311.74,1.54,256.433,1.54c-57.619,0-99.92,39.828-110.752,87.923c-1.773,7.871-2.703,15.963-2.721,24.139h35.051
				c0-0.002,0-0.003,0-0.004h0.004c0.035-14.422,3.496-27.151,9.367-37.923c13.902-25.513,41.318-40.039,68.717-40.039
				c56.088,0,83.453,50,77.91,90.212c-0.682,4.939-1.857,9.729-3.539,14.262l-3.123,7.678l-12.643,19.312l-15.859,24.216
				L238.31,283.73h0.002h144.502h0.002L367.984,251.65z"/>
		</defs>
		<clipPath id="SVGID_2_">
			<use xlink:href="#SVGID_1_"  overflow="visible"/>
		</clipPath>
		<g clip-path="url(#SVGID_2_)">
			<rect x="8.208" y="99.142" fill="#52347D" width="231.082" height="167.364"/>
			<path fill="#414992" d="M137.687,315.106c0-23.284,43.379-119.698,7.623-119.698c-35.754,0-169.982,47.813-169.982,71.1
				c0,23.287,61.866,90.764,97.621,90.764C108.703,357.27,137.687,338.393,137.687,315.106z"/>
			<path fill="#256CAA" d="M151.747,212.04c-50.838,0-195.687,114.977-158.352,162.289c1.483,1.879,2.934,3.795,4.363,5.731
				l154.656,44.83c15.549-13.197,25.082-30.988,25.082-50.563C177.496,333.622,202.585,212.04,151.747,212.04z"/>
			<path fill="#414992" d="M257.957,44.106c0,30.041-47.707,113.614-126.809,113.614c-79.101,0-204.055-86.257-136.465-128.741
				c25.433-15.987,40.951-39.267,120.051-39.267C193.835-10.287,257.957,14.066,257.957,44.106z"/>
			<path fill="#256CAA" d="M216.964,59.555c0,38.573-3.75,46.113-16.295,69.843C156.746,212.473-7.893,52.986,9.487,0.657
				C21.646-35.95,141.521-10.286,168.363-10.286S216.964,20.983,216.964,59.555z"/>
			<path fill="#1CA9C9" d="M63.56-21.958c10.518-21.568,91.793,65.101,115.932,65.101c24.141,0,43.707,19.453,43.707,43.449
				s-36.73,20.339-43.707,43.449C162.691,185.721,36.523,33.485,63.56-21.958z"/>
			<polygon fill="#47C473" points="131.148,339.245 295.294,361.132 205.259,35.416 136.298,10.311 			"/>
			<path fill="#FFD40D" d="M300.443,215.28c21.686-55.129,44.416-144.188,44.416-166.348c0-32.707-18.301-59.221-40.875-59.221
				S157.631,6.45,156.898,30.909c-1.979,65.826,15.764,118.018,38.199,155.865c21.412,154.571,156.896,234.106,140.754,165.346
				C333.853,343.626,313.076,271.208,300.443,215.28z"/>
			<path fill="#1CA9C9" d="M211.291,361.132c-5.064-9.654-41.35-79.176-34.762-133.891c0.506-4.197-26.484,8.164-37.697,20.369
				c-1.48-2.552-3.08-4.104-4.788-4.277c-10.621-1.084-70.486,89.877-70.486,109.432c0,19.553,37.18,30.896,47.313,30.896
				c5.654,0,17.328-15.966,26.54-33.474h28.497v-6.354C182.414,351.841,216.441,370.952,211.291,361.132z"/>
			<path fill="#FAA629" d="M428.64,316.053c15.441-50.787,39.168-123.965,39.168-149.832c0-38.468-14.988-69.652-33.475-69.652
				c-7.369,0-42.998,5.373-82.953,14.261c-2.496-11.723-3.945-21.175-3.945-27.457c0-49.949-13.689-90.44-30.576-90.44
				s-131.971-39.565-134.855,10.3c-3.383,58.428,14.229,115.151,41.277,166.194c7.115,69.463,93.676,168.045,148.234,202.047
				L428.64,316.053z"/>
			<path fill="#F66F09" d="M421.468,88.285L348.042-34.267c-68.367-7.192-101.535-58.787-122.27,14.323
				c-16.42,57.896-9.748,115.195,18.82,169.529c0.082,1.012,0.244,2.008,0.49,2.984c18.342,72.845,102.387,149.935,166.342,179.218
				L421.468,88.285z"/>
			<path fill="#D4021C" d="M427.294,84.622L310.503-110.31c-29.463,18.79-44.236,52.741-54.27,108.77
				c-25.242,140.986,69.338,230.043,164.842,236.963L427.294,84.622z"/>
		</g>
		<g display="none" opacity="0.4" clip-path="url(#SVGID_2_)" filter="url(#AI_GaussianBlur_7)">
			<path display="inline" d="M386.024,286.23h-153.04l91.437-139.609l3.032-7.454c1.568-4.23,2.714-8.852,3.378-13.662
				c3.012-21.845-4.195-45.831-18.807-62.595c-9.852-11.302-27.673-24.775-56.627-24.775c-27.588,0-53.699,15.205-66.521,38.735
				c-5.981,10.973-9.03,23.331-9.063,36.732l-0.004,2.494l-2.5,0.004h-37.556l0.005-2.505c0.018-8.264,0.954-16.569,2.782-24.683
				c5.561-24.691,19.293-47.195,38.668-63.367C201.983,8.206,227.753-0.96,255.731-0.96c28.575,0,57.031,11.318,78.071,31.053
				c23.012,21.583,35.874,51.995,36.218,85.634c0.022,2.41-0.014,4.802-0.107,7.113c-0.011,0.267-0.025,0.539-0.042,0.812
				l-0.017,0.298c-0.857,15.507-6.802,29.645-11.197,38.929c-1.891,3.995-3.783,7.656-5.452,10.888
				c-0.481,0.93-0.944,1.826-1.385,2.688l-0.15,0.255l-48.66,72.441h65.867l0.675,1.451L386.024,286.23z M242.234,281.23h135.97
				l-12.521-27.08h-72.055l53.809-80.107c0.423-0.825,0.866-1.684,1.325-2.572c1.65-3.194,3.521-6.814,5.375-10.73
				c4.217-8.905,9.915-22.436,10.725-37.065l0.018-0.312c0.014-0.24,0.027-0.48,0.037-0.721c0.091-2.234,0.125-4.543,0.104-6.868
				C364.305,45.835,308.891,4.04,255.731,4.04c-52.373,0-96.913,35.353-108.313,85.972c-1.563,6.938-2.444,14.02-2.625,21.089
				h30.059c0.387-13.289,3.624-25.598,9.633-36.623c13.686-25.115,41.521-41.343,70.912-41.343c30.834,0,49.862,14.406,60.396,26.49
				c15.534,17.822,23.194,43.327,19.991,66.563c-0.714,5.17-1.949,10.146-3.672,14.79l-3.375,8.177L242.234,281.23z"/>
		</g>
	</g>
</g>
<g>
	<g>
		<defs>
			<path id="SVGID_3_" d="M407.21,336.607H134.294L247.75,167.2c-0.021-0.001-0.059-0.004-0.078-0.009l24.859-37.16
				c0,0,5.916-9.455,5.916-15.397c0-12.589-10.039-22.794-22.43-22.794c-4.922,0-9.473,1.612-13.17,4.345
				c-5.404,3.996-8.986,10.388-9.236,17.641h-0.002c0,0,0,0,0,0.001H199.66c0-0.199-0.012-0.396-0.012-0.595
				c0-7.548,1.596-14.737,4.482-21.276c0.293-0.664,0.605-1.317,0.928-1.968c0.074-0.149,0.139-0.304,0.213-0.452
				c9.211-18.32,28.77-30.962,51.408-30.962c31.498,0,57.035,24.47,57.035,54.656c0,12.977-5.385,24.893-11.896,34.266
				c-0.932,1.339-1.885,2.626-2.85,3.856l-25.404,38.265l-77.479,116.695l-0.6,0.291h197.854l13.875,30.006L407.21,336.607
				L407.21,336.607z"/>
		</defs>
		<clipPath id="SVGID_4_">
			<use xlink:href="#SVGID_3_"  overflow="visible"/>
		</clipPath>
		<g clip-path="url(#SVGID_4_)">
			<rect x="8.484" y="99.713" fill="#52347D" width="231.083" height="167.364"/>
			<path fill="#414992" d="M137.962,315.677c0-23.285,43.379-119.699,7.623-119.699c-35.754,0-169.983,47.814-169.983,71.101
				c0,23.287,61.866,90.764,97.622,90.764C108.978,357.841,137.962,338.964,137.962,315.677z"/>
			<path fill="#256CAA" d="M152.021,212.611c-50.838,0-195.687,114.977-158.352,162.288c1.483,1.88,2.934,3.795,4.363,5.732
				l154.656,44.83c15.549-13.197,25.082-30.988,25.082-50.564C177.771,334.192,202.861,212.611,152.021,212.611z"/>
			<path fill="#414992" d="M258.234,44.676c0,30.041-47.709,113.615-126.81,113.615S-72.631,72.034-5.042,29.549
				C20.391,13.561,35.909-9.717,115.009-9.717C194.111-9.717,258.234,14.635,258.234,44.676z"/>
			<path fill="#256CAA" d="M217.24,60.126c0,38.573-3.75,46.113-16.295,69.842C157.021,213.044-7.617,53.555,9.764,1.226
				C21.921-35.38,141.797-9.716,168.638-9.716C195.48-9.716,217.24,21.552,217.24,60.126z"/>
			<path fill="#1CA9C9" d="M63.834-21.388c10.519-21.568,91.793,65.101,115.933,65.101c24.141,0,43.707,19.453,43.707,43.449
				s-36.732,20.339-43.707,43.449C162.966,186.292,36.799,34.054,63.834-21.388z"/>
			<polygon fill="#47C473" points="131.424,339.815 295.57,361.702 205.535,35.986 136.575,10.882 			"/>
			<path fill="#FFD40D" d="M300.718,215.85c21.684-55.129,44.416-144.187,44.416-166.347c0-32.707-18.301-59.221-40.875-59.221
				S157.906,7.021,157.173,31.48c-1.979,65.825,15.764,118.018,38.197,155.864c21.412,154.572,156.898,234.107,140.754,165.346
				C334.128,344.195,313.351,271.779,300.718,215.85z"/>
			<path fill="#1CA9C9" d="M211.566,361.702c-5.064-9.654-41.35-79.177-34.762-133.892c0.506-4.196-26.484,8.164-37.697,20.369
				c-1.479-2.551-3.08-4.104-4.787-4.276c-10.621-1.084-70.486,89.876-70.486,109.432c0,19.553,37.18,30.896,47.313,30.896
				c5.656,0,17.328-15.965,26.541-33.473h28.496v-6.355C182.689,352.411,216.716,371.522,211.566,361.702z"/>
			<path fill="#FAA629" d="M428.916,316.624c15.441-50.787,39.166-123.965,39.166-149.832c0-38.468-14.986-69.653-33.473-69.653
				c-7.371,0-42.998,5.373-82.953,14.262c-2.498-11.724-3.945-21.176-3.945-27.457c0-49.949-13.689-90.44-30.576-90.44
				c-16.889,0-131.973-39.565-134.855,10.299c-3.383,58.429,14.229,115.152,41.277,166.195
				c7.115,69.463,93.676,168.045,148.232,202.047L428.916,316.624z"/>
			<path fill="#F66F09" d="M421.744,88.855L348.318-33.698c-68.367-7.191-101.535-58.787-122.27,14.324
				c-16.418,57.896-9.748,115.195,18.82,169.529c0.082,1.012,0.244,2.008,0.49,2.983c18.342,72.846,102.387,149.936,166.342,179.218
				L421.744,88.855z"/>
			<path fill="#D4021C" d="M427.57,85.192L310.779-109.74C281.316-90.95,266.544-56.998,256.511-0.97
				c-25.242,140.985,69.336,230.043,164.84,236.963L427.57,85.192z"/>
		</g>
	</g>
	<g display="none">
		<defs>
			<path id="SVGID_5_" d="M407.21,336.607H134.294L247.75,167.2c-0.021-0.001-0.059-0.004-0.078-0.009l24.859-37.16
				c0,0,5.916-9.455,5.916-15.397c0-12.589-10.039-22.794-22.43-22.794c-4.922,0-9.473,1.612-13.17,4.345
				c-5.404,3.996-8.986,10.388-9.236,17.641h-0.002c0,0,0,0,0,0.001H199.66c0-0.199-0.012-0.396-0.012-0.595
				c0-7.548,1.596-14.737,4.482-21.276c0.293-0.664,0.605-1.317,0.928-1.968c0.074-0.149,0.139-0.304,0.213-0.452
				c9.211-18.32,28.77-30.962,51.408-30.962c31.498,0,57.035,24.47,57.035,54.656c0,12.977-5.385,24.893-11.896,34.266
				c-0.932,1.339-1.885,2.626-2.85,3.856l-25.404,38.265l-77.479,116.695l-0.6,0.291h197.854l13.875,30.006L407.21,336.607
				L407.21,336.607z"/>
		</defs>
		<clipPath id="SVGID_6_" display="inline">
			<use xlink:href="#SVGID_5_"  overflow="visible"/>
		</clipPath>
		<g display="inline" opacity="0.4" clip-path="url(#SVGID_6_)" filter="url(#AI_GaussianBlur_7)">
			<path d="M411.123,339.108l-281.512-0.001l114.053-170.3l-0.07-0.018l26.859-40.15c1.498-2.399,5.494-9.732,5.494-14.007
				c0-11.189-8.939-20.294-19.93-20.294c-4.232,0-8.273,1.333-11.684,3.855c-5.012,3.705-8.01,9.433-8.227,15.715v2.415h-38.949
				l-0.004-2.724c-0.004-0.124-0.008-0.247-0.008-0.372c0-7.729,1.58-15.228,4.695-22.285c0.307-0.695,0.637-1.379,0.973-2.063
				l0.078-0.166c0.045-0.099,0.09-0.198,0.139-0.295c9.883-19.656,30.938-32.35,53.646-32.35c32.828,0,59.537,25.64,59.537,57.155
				c0,14.819-6.713,27.59-12.346,35.693c-0.91,1.312-1.879,2.621-2.875,3.896L200.552,304.102h194.387L411.123,339.108z
				 M138.978,334.107h264.324l-11.563-25.005H184.625l9.754-4.741l102.563-154.475l0.061-0.078c0.959-1.223,1.891-2.481,2.766-3.74
				c5.223-7.518,11.449-19.315,11.449-32.839c0-28.76-24.465-52.156-54.535-52.156c-20.836,0-40.139,11.612-49.176,29.585
				l-0.064,0.141c-0.047,0.103-0.094,0.204-0.145,0.304c-0.299,0.608-0.6,1.229-0.877,1.862c-2.576,5.836-3.998,12.004-4.234,18.361
				h29.123c0.879-6.858,4.459-13.015,10.055-17.151c4.277-3.163,9.348-4.835,14.656-4.835c13.746,0,24.93,11.347,24.93,25.294
				c0,6.474-5.652,15.693-6.297,16.724l-22.432,33.53l0.086,0.003L138.978,334.107z"/>
		</g>
	</g>
</g>
<g>
	<g>
		<defs>
			<path id="SVGID_7_" d="M120.98,336.608h-5.942H89.491H34.833V321.46v-15.148v-0.002V96.001H0L15.57,65.109h50.751v20.197v10.694
				v210.309h23.169V42.533h-62.54L44.918,6.886h44.572c31.487,0,31.487,17.823,31.487,35.646L120.98,336.608L120.98,336.608z"/>
		</defs>
		<clipPath id="SVGID_8_">
			<use xlink:href="#SVGID_7_"  overflow="visible"/>
		</clipPath>
		<g clip-path="url(#SVGID_8_)">
			<rect x="8.76" y="100.283" fill="#52347D" width="231.083" height="167.365"/>
			<path fill="#414992" d="M138.238,316.247c0-23.285,43.379-119.7,7.623-119.7c-35.754,0-169.982,47.815-169.982,71.102
				c0,23.285,61.866,90.764,97.621,90.764C109.253,358.41,138.238,339.533,138.238,316.247z"/>
			<path fill="#256CAA" d="M152.297,213.18c-50.838,0-195.687,114.977-158.352,162.288c1.483,1.88,2.934,3.795,4.363,5.732
				l154.656,44.83c15.549-13.197,25.084-30.987,25.084-50.563C178.046,334.762,203.136,213.18,152.297,213.18z"/>
			<path fill="#414992" d="M258.509,45.246c0,30.041-47.709,113.615-126.81,113.615c-79.101,0-204.056-86.257-136.466-128.742
				C20.667,14.132,36.185-9.148,115.285-9.148C194.386-9.148,258.509,15.206,258.509,45.246z"/>
			<path fill="#256CAA" d="M217.515,60.696c0,38.572-3.75,46.112-16.295,69.842C157.296,213.614-7.341,54.126,10.039,1.797
				C22.196-34.81,142.072-9.146,168.914-9.146S217.515,22.123,217.515,60.696z"/>
			<path fill="#1CA9C9" d="M64.11-20.819c10.518-21.567,91.793,65.102,115.934,65.102c24.139,0,43.705,19.453,43.705,43.449
				c0,23.995-36.73,20.339-43.705,43.448C163.242,186.863,37.075,34.625,64.11-20.819z"/>
			<polygon fill="#47C473" points="131.7,340.385 295.845,362.272 205.81,36.555 136.849,11.452 			"/>
			<path fill="#FFD40D" d="M300.994,216.42c21.686-55.129,44.416-144.186,44.416-166.346c0-32.707-18.301-59.222-40.875-59.222
				c-22.572,0-146.352,16.738-147.085,41.197c-1.979,65.826,15.763,118.019,38.198,155.864
				C217.06,342.486,352.544,422.021,336.402,353.26C334.404,344.765,313.626,272.348,300.994,216.42z"/>
			<path fill="#1CA9C9" d="M211.841,362.272c-5.064-9.653-41.35-79.176-34.762-133.892c0.506-4.196-26.484,8.165-37.697,20.369
				c-1.48-2.55-3.08-4.103-4.787-4.276c-10.621-1.085-70.487,89.877-70.487,109.431c0,19.555,37.18,30.897,47.313,30.897
				c5.655,0,17.328-15.965,26.54-33.473h28.497v-6.355C182.964,352.981,216.992,372.093,211.841,362.272z"/>
			<path fill="#FAA629" d="M429.191,317.194c15.443-50.786,39.168-123.966,39.168-149.831c0-38.47-14.988-69.653-33.473-69.653
				c-7.371,0-43,5.373-82.955,14.261c-2.496-11.723-3.945-21.175-3.945-27.457c0-49.948-13.688-90.439-30.576-90.439
				c-16.887,0-131.971-39.566-134.855,10.299c-3.381,58.428,14.229,115.152,41.277,166.195
				c7.115,69.463,93.676,168.043,148.234,202.046L429.191,317.194z"/>
			<path fill="#F66F09" d="M422.019,89.425L348.593-33.127c-68.367-7.192-101.535-58.787-122.27,14.324
				c-16.42,57.895-9.748,115.194,18.82,169.528c0.082,1.013,0.244,2.009,0.49,2.984c18.342,72.845,102.387,149.936,166.342,179.218
				L422.019,89.425z"/>
			<path fill="#D4021C" d="M427.845,85.761L311.054-109.17c-29.463,18.79-44.236,52.742-54.27,108.77
				c-25.24,140.986,69.338,230.044,164.842,236.965L427.845,85.761z"/>
		</g>
	</g>
	<g display="none">
		<defs>
			<path id="SVGID_9_" d="M120.98,336.608h-5.942H89.491H34.833V321.46v-15.148v-0.002V96.001H0L15.57,65.109h50.751v20.197v10.694
				v210.309h23.169V42.533h-62.54L44.918,6.886h44.572c31.487,0,31.487,17.823,31.487,35.646L120.98,336.608L120.98,336.608z"/>
		</defs>
		<clipPath id="SVGID_10_" display="inline">
			<use xlink:href="#SVGID_9_"  overflow="visible"/>
		</clipPath>
		<g display="inline" opacity="0.4" clip-path="url(#SVGID_10_)" filter="url(#AI_GaussianBlur_7)">
			<path d="M123.478,339.108H32.333V98.501H-4.061L14.03,62.609h54.791v241.2h18.169V45.033H22.892L43.379,4.386h46.111
				c33.987,0,33.987,20.267,33.987,38.146V339.108z M37.333,334.108h81.145V42.533c0-17.786,0-33.146-28.988-33.146H46.458
				L31.012,40.033H91.99v268.776H63.821v-241.2H17.109L4.059,93.501h33.274L37.333,334.108L37.333,334.108z"/>
		</g>
	</g>
</g>
</svg>
