<?xml version="1.0" encoding="utf-8"?>
<svg viewBox="443.4424 150.0923 86.6 86.6" xmlns="http://www.w3.org/2000/svg">
  <polygon points="67.6,41.2 59.3,41.2 59.3,48 47.4,48 61.9,20.5 51.9,20.5 35.8,49.5 35.8,55.3 59.3,55.3 59.3,63.2     67.6,63.2 67.6,55.3 72.1,55.3 72.1,48 67.6,48   " style="fill: rgb(255, 255, 255);" transform="matrix(1, 0, 0, 1, 443.4424133300781, 150.09225463867188)"/>
  <polygon points="15.3,23.8 15.3,31 22.6,30 22.6,63.2 31.8,63.2 31.8,20.5 24.8,20.5   " style="fill: rgb(255, 255, 255);" transform="matrix(1, 0, 0, 1, 443.4424133300781, 150.09225463867188)"/>
  <path fill="#E21F26" d="M43.3,0C19.4,0,0,19.4,0,43.3s19.4,43.3,43.3,43.3c23.9,0,43.3-19.4,43.3-43.3S67.1,0,43.3,0z M31.8,63.2    h-9.2V30l-7.3,1v-7.2l9.5-3.3h7V63.2z M72.1,55.3h-4.5v7.8h-8.3v-7.8H35.8v-5.8l16.2-29h10L47.4,48h11.8v-6.8h8.3V48h4.5V55.3z" transform="matrix(1, 0, 0, 1, 443.4424133300781, 150.09225463867188)"/>
</svg>