<svg version="1.1" id="Layer_1" xmlns="http://www.w3.org/2000/svg" xmlns:xlink="http://www.w3.org/1999/xlink" x="0px" y="0px"
	 viewBox="0 0 344.8 105.4" enable-background="new 0 0 344.8 105.4" xml:space="preserve">
<g>
	<rect x="11.9" y="16.4" fill="#FFFFFF" width="63.8" height="51.7"/>
	<g>
		<polygon fill="none" points="67.6,41.2 59.3,41.2 59.3,48 47.4,48 61.9,20.5 51.9,20.5 35.8,49.5 35.8,55.3 59.3,55.3 59.3,63.2 
			67.6,63.2 67.6,55.3 72.1,55.3 72.1,48 67.6,48 		"/>
		<polygon fill="none" points="15.3,23.8 15.3,31 22.6,30 22.6,63.2 31.8,63.2 31.8,20.5 24.8,20.5 		"/>
		<path fill="#E21F26" d="M43.3,0C19.4,0,0,19.4,0,43.3s19.4,43.3,43.3,43.3c23.9,0,43.3-19.4,43.3-43.3S67.1,0,43.3,0z M31.8,63.2
			h-9.2V30l-7.3,1v-7.2l9.5-3.3h7V63.2z M72.1,55.3h-4.5v7.8h-8.3v-7.8H35.8v-5.8l16.2-29h10L47.4,48h11.8v-6.8h8.3V48h4.5V55.3z"/>
		<path fill="#141533" d="M344.8,42.6V82c0,3.6-0.5,6.9-1.5,9.7c-1,2.8-2.5,5.2-4.5,7.2c-2,2-4.6,3.5-7.7,4.5
			c-3.1,1-6.8,1.5-11.1,1.5h-32V88.8h9.7l-7.7-46.3h20.3l7.5,46.3h2.1c1.6,0,2.8-0.5,3.4-1.5c0.7-1,1-2.6,1-5V42.6H344.8z
			 M279.1,47.1c-1.8-1.7-4.1-2.8-6.8-3.5c-2.8-0.7-6.1-1-9.9-1h-27.5v16.1H261c0.8,0,1.4,0.6,1.4,1.4v26.5c0,1.2-1,2.2-2.2,2.2
			h-25.2v16.1h27.5c3.7,0,6.9-0.4,9.7-1.1c2.7-0.7,5-1.9,6.9-3.6c1.8-1.7,3.2-4,4.1-6.9c0.9-2.9,1.3-6.5,1.3-10.8V72v-7.1
			c0-4.4-0.4-8-1.3-10.9C282.2,51,280.9,48.8,279.1,47.1z M208,83.2c0,1.3-0.1,2.4-0.3,3.2c-0.2,0.8-0.5,1.5-0.9,1.9
			c-0.4,0.4-0.9,0.8-1.5,0.9c-0.6,0.2-1.3,0.2-2.1,0.2h-4.6V42.6h-18.9v46.8h-5c-0.8,0-1.5-0.1-2.1-0.2c-0.6-0.2-1-0.5-1.4-0.9
			c-0.4-0.4-0.6-1.1-0.8-1.9c-0.2-0.8-0.3-1.9-0.3-3.2V42.6h-19.6v40.6c0,4.1,0.6,7.5,1.7,10.3c1.1,2.8,2.8,5.1,4.9,6.9
			c2.2,1.8,4.9,3.1,8.1,3.9c3.3,0.8,7,1.2,11.3,1.2h25c3.9,0,7.5-0.4,10.7-1.3c3.2-0.9,5.9-2.2,8.2-4c2.3-1.8,4-4.1,5.3-6.9
			c1.2-2.8,1.9-6.2,1.9-10.1V42.6H208V83.2z M122.7,80.1H143V42.6h-20.3V80.1z M94.7,104.9h20.2V42.6H94.7V104.9z"/>
	</g>
</g>
</svg>
