<?xml version="1.0" encoding="utf-8"?>
<svg viewBox="128.353 36.85 1329.95 310.33" xmlns="http://www.w3.org/2000/svg">
  <rect style="fill:#ff1381;fill-opacity:1;fill-rule:evenodd;stroke-width:0.465016" id="rect26" width="203.847" height="64.119" x="209.99" y="36.851" transform="matrix(0.9999999999999999, 0, 0, 0.9999999999999999, 0, 0)"/>
  <path id="rect30" style="fill:#00104c;fill-opacity:1;fill-rule:evenodd;stroke-width:0.465016" d="M 142.68 36.852 C 134.743 36.852 128.353 43.241 128.353 51.178 L 128.353 347.18 L 195.408 347.18 L 195.408 36.852 L 142.68 36.852 Z" transform="matrix(0.9999999999999999, 0, 0, 0.9999999999999999, 0, 0)"/>
  <path style="fill:none;fill-opacity:1;fill-rule:evenodd;stroke:#00104c;stroke-width:66.7375;stroke-miterlimit:4;stroke-dasharray:none;stroke-opacity:1" id="path60" d="M 365.748 191.001 C 389.274 214.631 394.066 251.187 377.43 280.129 C 360.795 309.07 326.881 323.18 294.743 314.531 C 262.606 305.882 240.26 276.629 240.26 243.211" transform="matrix(0.9999999999999999, 0, 0, 0.9999999999999999, 0, 0)"/>
  <path id="path904" style="fill:#00f4c8;fill-opacity:1;fill-rule:evenodd;stroke-width:0.465016" d="M 349.452 100.97 L 286.63 163.793 C 282.075 168.347 282.075 175.68 286.63 180.235 L 315.665 209.271 C 315.671 209.277 315.676 209.282 315.684 209.288 L 323.887 217.491 L 413.838 127.54 L 413.838 100.97 L 413.838 36.85 L 349.452 100.97 Z" transform="matrix(0.9999999999999999, 0, 0, 0.9999999999999999, 0, 0)"/>
  <path id="path907" style="fill:#ffd400;fill-opacity:1;fill-rule:evenodd;stroke-width:0.465016" d="M 413.837 36.85 L 349.452 100.97 L 413.837 100.97 L 413.837 36.85 Z" transform="matrix(0.9999999999999999, 0, 0, 0.9999999999999999, 0, 0)"/>
  <path id="path140" style="opacity: 1; fill: rgb(0, 16, 76); fill-opacity: 1; fill-rule: evenodd; stroke-width: 0.132974;" d="M 501.445 42.296 L 501.445 260.529 C 501.445 264.331 498.746 265.98 495.706 265.98 L 455.748 265.98 L 455.748 340.845 L 510.475 340.833 C 552.538 340.833 581.691 312.879 581.691 271.924 L 581.691 115.229 L 693.873 115.229 L 693.873 340.849 L 774.121 340.849 L 774.121 69.746 C 774.121 56.539 764.336 42.296 747.012 42.296 L 501.445 42.296 Z M 806.973 42.296 L 806.973 340.845 L 1081.636 340.845 C 1154.907 340.845 1187.328 274.217 1187.328 236.751 L 1187.328 42.296 L 1107.079 42.296 L 1107.079 235.288 C 1107.079 253.962 1091.403 267.919 1072.726 267.919 L 1037.437 267.919 L 1037.437 42.296 L 957.186 42.296 L 957.186 267.919 L 887.223 267.919 L 887.223 42.296 L 806.973 42.296 Z M 1218.29 42.296 L 1218.29 115.226 L 1378.058 115.226 L 1378.058 340.845 L 1458.303 340.845 L 1458.303 69.746 C 1458.303 56.539 1448.52 42.296 1431.195 42.296 L 1397.923 42.296 L 1378.058 42.296 L 1218.29 42.296 Z" transform="matrix(0.9999999999999999, 0, 0, 0.9999999999999999, 0, 0)"/>
</svg>