<?xml version="1.0" encoding="utf-8"?>
<svg viewBox="128.353 36.85 285.485 310.33" xmlns="http://www.w3.org/2000/svg">
  <rect style="fill:#ff1381;fill-opacity:1;fill-rule:evenodd;stroke-width:0.465016" id="rect26" width="203.847" height="64.119" x="209.99" y="36.851" transform="matrix(0.9999999999999999, 0, 0, 0.9999999999999999, 0, 0)"/>
  <path id="rect30" style="fill:#00104c;fill-opacity:1;fill-rule:evenodd;stroke-width:0.465016" d="M 142.68 36.852 C 134.743 36.852 128.353 43.241 128.353 51.178 L 128.353 347.18 L 195.408 347.18 L 195.408 36.852 L 142.68 36.852 Z" transform="matrix(0.9999999999999999, 0, 0, 0.9999999999999999, 0, 0)"/>
  <path style="fill:none;fill-opacity:1;fill-rule:evenodd;stroke:#00104c;stroke-width:66.7375;stroke-miterlimit:4;stroke-dasharray:none;stroke-opacity:1" id="path60" d="M 365.748 191.001 C 389.274 214.631 394.066 251.187 377.43 280.129 C 360.795 309.07 326.881 323.18 294.743 314.531 C 262.606 305.882 240.26 276.629 240.26 243.211" transform="matrix(0.9999999999999999, 0, 0, 0.9999999999999999, 0, 0)"/>
  <path id="path904" style="fill:#00f4c8;fill-opacity:1;fill-rule:evenodd;stroke-width:0.465016" d="M 349.452 100.97 L 286.63 163.793 C 282.075 168.347 282.075 175.68 286.63 180.235 L 315.665 209.271 C 315.671 209.277 315.676 209.282 315.684 209.288 L 323.887 217.491 L 413.838 127.54 L 413.838 100.97 L 413.838 36.85 L 349.452 100.97 Z" transform="matrix(0.9999999999999999, 0, 0, 0.9999999999999999, 0, 0)"/>
  <path id="path907" style="fill:#ffd400;fill-opacity:1;fill-rule:evenodd;stroke-width:0.465016" d="M 413.837 36.85 L 349.452 100.97 L 413.837 100.97 L 413.837 36.85 Z" transform="matrix(0.9999999999999999, 0, 0, 0.9999999999999999, 0, 0)"/>
</svg>